<svg width="20" height="20" viewBox="0 0 20 20" fill="none" xmlns="http://www.w3.org/2000/svg">
<path fill-rule="evenodd" clip-rule="evenodd" d="M1.53846 0C1.13044 0 0.739122 0.162087 0.450605 0.450605C0.162087 0.739122 0 1.13044 0 1.53846V18.4615C0 18.8696 0.162087 19.2609 0.450605 19.5494C0.739122 19.8379 1.13044 20 1.53846 20H18.4615C18.8696 20 19.2609 19.8379 19.5494 19.5494C19.8379 19.2609 20 18.8696 20 18.4615V1.53846C20 1.13044 19.8379 0.739122 19.5494 0.450605C19.2609 0.162087 18.8696 0 18.4615 0H1.53846ZM3.15385 7.69231H6.07692V16.9231H3.15385V7.69231ZM6.26923 4.62308C6.26923 5.0617 6.09499 5.48237 5.78483 5.79252C5.47467 6.10268 5.05401 6.27692 4.61538 6.27692C4.17676 6.27692 3.7561 6.10268 3.44594 5.79252C3.13578 5.48237 2.96154 5.0617 2.96154 4.62308C2.96154 4.18445 3.13578 3.76379 3.44594 3.45363C3.7561 3.14347 4.17676 2.96923 4.61538 2.96923C5.05401 2.96923 5.47467 3.14347 5.78483 3.45363C6.09499 3.76379 6.26923 4.18445 6.26923 4.62308ZM16.9231 11.3185C16.9231 8.54154 15.1277 7.46154 13.3446 7.46154C12.7619 7.43323 12.1817 7.55563 11.66 7.81692C11.2646 8.01692 10.8508 8.46923 10.5308 9.26H10.4492V7.69231H7.69231V16.9308H10.6246V12.0154C10.5831 11.5123 10.7431 10.8615 11.0723 10.4754C11.4031 10.0877 11.8723 9.99539 12.2308 9.94923H12.3431C13.2754 9.94923 13.9677 10.5262 13.9677 11.98V16.9292H16.9L16.9231 11.3185Z" fill="white"/>
</svg>
